<svg width="97" height="109" viewBox="0 0 97 109" fill="none" xmlns="http://www.w3.org/2000/svg">
<path d="M50.2878 57.095L36.4075 43.548C35.9746 43.0634 35.0324 41.6791 34.7272 40.0182C34.3458 37.942 36.9275 33.5158 37.3728 32.7942C37.729 32.217 37.5822 31.631 37.3402 31.3247C37.0317 30.9376 35.0525 29.2066 34.8198 29.0636C30.9917 26.4236 33.1573 19.3394 34.3631 15.5683C29.1399 10.5019 30.1714 4.65783 30.6781 1.79938C31.0835 -0.487376 32.6353 0.545572 33.3605 1.34789C40.2194 8.05377 55.7283 23.2167 62.8925 30.2215C70.0567 37.2262 65.3303 44.99 62.0716 47.9963C59.8912 50.2817 55.1324 55.2475 53.5406 56.8277C51.9488 58.4078 50.7088 57.6643 50.2878 57.095Z" fill="#FFA012"/>
<path d="M30.6784 1.79928C31.0839 -0.487301 32.6358 0.545604 33.361 1.34791C34.1891 2.15753 35.1439 3.0898 36.1943 4.11672C35.6338 7.29515 34.6694 13.5124 40.2416 18.9175C38.9282 23.0248 36.5695 30.7408 40.7386 33.6164C40.992 33.7721 43.1478 35.6573 43.4841 36.0791C43.7477 36.4127 43.9078 37.0515 43.5198 37.6803C43.0344 38.4669 40.2229 43.2874 40.6383 45.5485C40.9707 47.3572 41.9962 48.8648 42.4678 49.3927L50.8453 57.5685C50.5994 57.4354 50.4092 57.2591 50.2879 57.0952L36.4079 43.5482C35.9749 43.0637 35.0324 41.6789 34.7273 40.0179C34.3463 37.942 36.9268 33.5174 37.3728 32.7947C37.7291 32.2175 37.5821 31.6313 37.3401 31.3249C37.0317 30.9379 35.0525 29.2068 34.8199 29.0638C30.9918 26.4238 33.1577 19.3396 34.3635 15.5685C29.1403 10.502 30.1717 4.65773 30.6784 1.79928Z" fill="#FF7F12"/>
<path d="M91.7371 45.5259C90.4512 44.8599 87.9529 43.6697 86.9004 43.2869L87.331 48.3103L87.9625 55.3429C90.4789 53.391 95.6553 49.3781 96.2294 48.9418C96.8035 48.5055 96.6672 48.095 95.9137 47.7075C95.0334 47.1716 93.0231 46.1918 91.7371 45.5259Z" fill="#FFA012"/>
<path d="M39.4794 70.5863C38.469 70.77 29.7963 72.8061 25.5863 73.8012C22.0958 74.536 23.0602 72.5765 23.9788 71.5048L32.2458 59.4488L28.1123 38.5517C26.2752 28.8151 34.6187 23.7401 38.446 22.477C44.9142 20.8313 60.2157 17.1035 69.6768 15.3583C79.1379 13.613 85.7515 23.1085 85.7515 30.2847C86.3639 37.5948 87.6575 50.9063 87.9331 55.3153C88.2775 60.8266 85.9811 64.2712 82.6514 67.8306C79.9876 70.6781 73.4276 71.4665 70.4805 71.5048C60.5678 71.1221 40.4898 70.4025 39.4794 70.5863Z" fill="#6C53E7"/>
<circle cx="68.486" cy="37.476" r="7.44889" fill="white"/>
<path d="M47.8037 55.1704L28.6863 51.898C28.0548 51.745 26.4932 51.1403 25.2991 49.9461C23.8065 48.4535 23.419 43.344 23.3759 42.4972C23.3414 41.8198 22.8879 41.4208 22.5148 41.306C22.0411 41.1625 19.429 40.8611 19.1563 40.8754C14.5061 40.8754 12.2671 33.8141 11.119 30.025C3.94276 28.8194 1.47416 23.4229 0.268562 20.7821C-0.695918 18.6694 1.16798 18.6388 2.22049 18.8875C11.6739 20.5141 33.0494 24.1922 42.9239 25.8915C52.7983 27.5908 53.315 36.6654 52.339 40.9902C51.8415 44.1095 50.743 50.8991 50.3297 53.1036C49.9163 55.3082 48.4735 55.4 47.8037 55.1704Z" fill="#FFA012"/>
<path d="M0.268555 20.7819C-0.695799 18.6693 1.16821 18.6386 2.2207 18.8873C3.36259 19.0838 4.67846 19.31 6.12695 19.5592C7.47059 22.4951 10.2079 28.1564 17.8604 29.442C19.1109 33.5689 21.5494 41.2604 26.6143 41.2604C26.9117 41.2448 29.7566 41.5728 30.2725 41.7291C30.6788 41.8543 31.1725 42.2893 31.21 43.027C31.257 43.9505 31.6794 49.5134 33.3047 51.1393C34.6053 52.4399 36.3063 53.0985 36.9941 53.2653L48.5449 55.2418C48.2617 55.2746 47.9997 55.2377 47.8037 55.1705L28.6865 51.8981C28.055 51.745 26.4929 51.14 25.2988 49.9459C23.8066 48.4533 23.4192 43.3459 23.376 42.4977C23.3415 41.8203 22.8878 41.4211 22.5146 41.3063C22.041 41.1628 19.4289 40.8613 19.1562 40.8756C14.5061 40.8756 12.2673 33.8141 11.1191 30.025C3.94295 28.8194 1.47416 23.4227 0.268555 20.7819Z" fill="#FF7F12"/>
<circle cx="69.7916" cy="38.4955" r="3.6168" fill="#4E3F6F"/>
<path d="M25.3851 109.001V95.6919H30.1849V92.3647H16.4512V95.6919H21.2367V109.001H25.3851Z" fill="#503EA9"/>
<path d="M42.4183 98.4528H42.5174L45.4765 109.001H49.3984L53.8583 92.3647H49.5683L47.1755 103.72H47.0764L44.1456 92.3647H40.7901L37.8593 103.72H37.7602L35.3674 92.3647H31.0774L35.5515 109.001H39.4592L42.4183 98.4528Z" fill="#503EA9"/>
<path d="M59.6922 109.001V92.3647H55.5437V109.001H59.6922Z" fill="#503EA9"/>
<path d="M62.1846 92.3647V109.001H69.0373C74.1768 109.001 77.2067 105.886 77.2067 100.591C77.2067 95.2813 74.1768 92.3647 69.0373 92.3647H62.1846ZM66.333 95.6919H68.4993C71.3451 95.6919 72.9733 97.4192 72.9733 100.591C72.9733 103.96 71.4159 105.674 68.4993 105.674H66.333V95.6919Z" fill="#503EA9"/>
<path d="M87.2456 109.001V103.21L93.1355 92.3647H88.7464L85.2493 99.3023H85.1643L81.6813 92.3647H77.2073L83.0972 103.21V109.001H87.2456Z" fill="#503EA9"/>
</svg>
