<svg width="30" height="31" viewBox="0 0 30 31" fill="none" xmlns="http://www.w3.org/2000/svg">
<g clip-path="url(#clip0_4020_58)">
<path d="M29.3896 18.72L26.5696 16.51C26.6096 16.17 26.6396 15.77 26.6396 15.35C26.6396 14.93 26.6096 14.53 26.5696 14.19L29.3996 11.98C29.9196 11.57 30.0696 10.83 29.7296 10.22L26.7896 5.14C26.4796 4.57 25.7896 4.27 25.0896 4.53L21.7596 5.87C21.1196 5.41 20.4496 5.02 19.7596 4.71L19.2496 1.18C19.1696 0.51 18.5896 0 17.8996 0H12.0096C11.3196 0 10.7396 0.51 10.6596 1.17L10.1496 4.72C9.4796 5.02 8.8196 5.41 8.1496 5.88L4.8096 4.53C4.1796 4.29 3.4396 4.56 3.1196 5.13L0.179604 10.22C-0.170396 10.81 -0.0203959 11.57 0.509604 11.99L3.3296 14.2C3.2896 14.63 3.2596 15.01 3.2596 15.36C3.2596 15.71 3.2796 16.09 3.3296 16.52L0.499604 18.73C-0.0203959 19.15 -0.170396 19.88 0.169604 20.49L3.1096 25.57C3.4196 26.14 4.0996 26.44 4.8096 26.18L8.1396 24.84C8.7796 25.3 9.4496 25.69 10.1396 26L10.6496 29.53C10.7296 30.2 11.3196 30.71 12.0096 30.71H17.8996C18.5896 30.71 19.1696 30.2 19.2596 29.54L19.7596 26C20.4296 25.7 21.0896 25.31 21.7596 24.84L25.0996 26.18C25.2596 26.24 25.4296 26.27 25.5996 26.27C26.0996 26.27 26.5496 26 26.7796 25.58L29.7296 20.47C30.0596 19.88 29.9196 19.14 29.3896 18.72ZM14.9596 20.48C12.1396 20.48 9.8396 18.18 9.8396 15.36C9.8396 12.54 12.1396 10.24 14.9596 10.24C17.7796 10.24 20.0796 12.54 20.0796 15.36C20.0796 18.18 17.7796 20.48 14.9596 20.48Z" fill="#8C8CB6"/>
</g>
<defs>
<clipPath id="clip0_4020_58">
<rect width="29.91" height="30.72" fill="white"/>
</clipPath>
</defs>
</svg>
