<svg width="36" height="31" viewBox="0 0 36 31" fill="none" xmlns="http://www.w3.org/2000/svg">
<g clip-path="url(#clip0_4023_237)">
<path d="M1.57 23.7C3.82 23.7 5.74 23.58 8.33 23.58C9.52 23.58 10.84 23.61 12.41 23.68C12.59 23.69 12.76 23.69 12.94 23.69C19.23 23.69 24.25 18.2 24.25 11.84C24.25 5.3 18.95 0 12.41 0C5.87 0 0.57 5.3 0.57 11.84C0.57 14.88 1 19.51 0 23.67C0.55 23.69 1.07 23.7 1.57 23.7Z" fill="#615DFA"/>
<path d="M34.6802 28.98C33.9302 25.87 34.0302 22.41 34.1002 19.62C34.1202 18.83 34.1402 18.09 34.1402 17.43C34.1402 11.58 30.2802 6.62001 24.9802 4.95001C26.1002 7.00001 26.7502 9.34001 26.7502 11.84C26.7502 19.75 20.5502 26.19 12.9402 26.19C12.7302 26.19 12.5102 26.18 12.2902 26.17C11.9002 26.15 11.5402 26.14 11.1602 26.13C13.4602 28.83 16.8002 30.54 20.5302 30.54C20.7202 30.54 20.9202 30.54 21.1202 30.53C22.5102 30.46 23.8202 30.43 25.1402 30.43C26.4602 30.43 27.6102 30.46 28.7202 30.49C29.7802 30.52 30.8002 30.55 31.9002 30.55C32.4202 30.55 32.9502 30.54 33.5102 30.53L35.0502 30.49L34.6802 28.98Z" fill="#615DFA"/>
</g>
<defs>
<clipPath id="clip0_4023_237">
<rect width="35.04" height="30.55" fill="white"/>
</clipPath>
</defs>
</svg>
