<svg width="33" height="33" viewBox="0 0 33 33" fill="none" xmlns="http://www.w3.org/2000/svg">
<g clip-path="url(#clip0_4020_50)">
<path d="M31.5001 14.08L18.2901 0.87C17.7301 0.31 16.9801 0 16.1801 0C15.3801 0 14.6401 0.31 14.0701 0.87L0.870133 14.07L0.860133 14.08C-0.299867 15.24 -0.289867 17.13 0.870133 18.29C1.40013 18.82 2.10013 19.13 2.85013 19.16C2.88013 19.16 2.91013 19.16 2.94013 19.16H3.47013V28.88C3.47013 30.8 5.03013 32.37 6.96013 32.37H12.1301C12.6501 32.37 13.0801 31.95 13.0801 31.42V23.8C13.0801 22.92 13.7901 22.21 14.6701 22.21H17.7201C18.6001 22.21 19.3101 22.92 19.3101 23.8V31.42C19.3101 31.94 19.7301 32.37 20.2601 32.37H25.4301C27.3501 32.37 28.9201 30.81 28.9201 28.88V19.16H29.4101C30.2101 19.16 30.9501 18.85 31.5201 18.29C32.6601 17.13 32.6601 15.24 31.5001 14.08Z" fill="#615DFA"/>
</g>
<defs>
<clipPath id="clip0_4020_50">
<rect width="32.37" height="32.37" fill="white"/>
</clipPath>
</defs>
</svg>
